<svg width="82" height="127" xmlns="http://www.w3.org/2000/svg" xmlns:xlink="http://www.w3.org/1999/xlink" overflow="hidden"><defs><clipPath id="clip0"><rect x="481" y="382" width="82" height="127"/></clipPath><clipPath id="clip1"><rect x="487" y="383" width="70" height="70"/></clipPath><clipPath id="clip2"><rect x="487" y="383" width="70" height="70"/></clipPath><clipPath id="clip3"><rect x="487" y="383" width="70" height="70"/></clipPath><clipPath id="clip4"><rect x="481" y="413" width="81" height="96"/></clipPath><clipPath id="clip5"><rect x="481" y="413" width="81" height="96"/></clipPath><clipPath id="clip6"><rect x="481" y="413" width="81" height="96"/></clipPath></defs><g clip-path="url(#clip0)" transform="translate(-481 -382)"><g clip-path="url(#clip1)"><g clip-path="url(#clip2)"><g clip-path="url(#clip3)"><path d="M507.234 411.139C512.201 409.508 517.64 410.239 522 413.122 526.36 410.239 531.799 409.508 536.766 411.139 536.882 410.415 536.943 409.684 536.948 408.951 536.948 400.696 530.255 394.003 522 394.003 513.745 394.003 507.052 400.696 507.052 408.951 507.057 409.684 507.118 410.415 507.234 411.139Z" stroke="#595959" stroke-width="0.729134" fill="#FFFFFF"/><path d="M538.319 414.165C536.874 418.638 533.663 422.327 529.43 424.373 529.609 425.374 529.699 426.389 529.7 427.406 529.701 432.334 527.574 437.023 523.867 440.269 526.155 441.634 528.771 442.354 531.435 442.354 539.687 442.357 546.379 435.671 546.382 427.419 546.384 421.837 543.274 416.72 538.319 414.15Z" stroke="#595959" stroke-width="0.729134" fill="#FFFFFF"/><path d="M526.864 423.104C526.002 420.245 524.309 417.706 522 415.812 519.691 417.706 517.998 420.245 517.136 423.104 520.286 424.203 523.714 424.203 526.864 423.104Z" stroke="#595959" stroke-width="0.729134" fill="#FFFFFF"/><path d="M512.565 442.369C515.229 442.369 517.845 441.648 520.133 440.283 516.426 437.037 514.299 432.349 514.3 427.421 514.301 426.404 514.391 425.389 514.57 424.388 510.337 422.341 507.126 418.653 505.681 414.179 498.356 417.978 495.497 426.995 499.295 434.32 501.865 439.276 506.983 442.386 512.565 442.383Z" stroke="#595959" stroke-width="0.729134" fill="#FFFFFF"/><path d="M522 439C525.488 436.168 527.513 431.914 527.513 427.421 527.506 426.688 527.448 425.957 527.338 425.233 523.87 426.371 520.13 426.371 516.662 425.233 516.552 425.957 516.494 426.688 516.487 427.421 516.487 431.914 518.512 436.168 522 439Z" stroke="#595959" stroke-width="0.729134" fill="#FFFFFF"/><path d="M536.299 413.297C532.184 411.871 527.649 412.33 523.903 414.551 526.237 416.6 527.971 419.243 528.92 422.2 532.47 420.337 535.127 417.131 536.299 413.297Z" stroke="#595959" stroke-width="0.729134" fill="#FFFFFF"/><path d="M512.565 412.473C510.909 412.477 509.265 412.755 507.701 413.297 508.882 417.137 511.553 420.344 515.117 422.2 516.066 419.243 517.8 416.6 520.133 414.551 517.843 413.191 515.228 412.474 512.565 412.473Z" stroke="#595959" stroke-width="0.729134" fill="#FFFFFF"/></g></g></g><g clip-path="url(#clip4)"><g clip-path="url(#clip5)"><g clip-path="url(#clip6)"><path d="M69.1875 11.8125 11.8125 11.8125C9.95625 11.8125 8.4375 13.3313 8.4375 15.1875 8.4375 17.0438 9.95625 18.5625 11.8125 18.5625L13.0781 18.5625 21.0938 66.4875C21.4312 68.0906 22.7812 69.1875 24.3844 69.1875L56.4469 69.1875C58.05 69.1875 59.4844 68.0062 59.7375 66.4875L67.9219 18.5625 69.1875 18.5625C71.0437 18.5625 72.5625 17.0438 72.5625 15.1875 72.5625 13.3313 71.0437 11.8125 69.1875 11.8125ZM27 49.7812C27.3375 50.2875 27.9281 50.625 28.6031 50.625L33.6656 50.625 33.6656 54 28.6031 54C26.7469 54 24.975 52.9875 24.0469 51.3844 23.2031 49.7812 23.2031 48.0094 24.2156 46.3219L28.5187 38.8969 25.65 37.2938 32.5687 35.4375 34.425 42.3563 31.3875 40.5844 27.1688 48.0938C26.7469 48.6844 26.6625 49.275 27 49.7812ZM33.75 30.6281 36.2812 26.2406C37.2094 24.6375 38.8969 23.5406 40.7531 23.625 42.525 23.625 44.1281 24.6375 45.0563 26.325L49.3594 33.75 52.2281 32.1469 50.3719 39.0656 43.4531 37.2094 46.4062 35.4375 42.1031 27.9281C41.7656 27.2531 41.2594 27 40.7531 26.9156 40.1625 26.9156 39.5719 27.2531 39.2344 27.8438L36.7031 32.2313 33.75 30.6281ZM56.8688 51.7219C55.9406 53.2406 54.4219 54.0844 52.5656 54.0844 52.4813 54.0844 52.4813 54.0844 52.3969 54.0844L43.7906 54.0844 43.7906 57.375 38.7281 52.3125 43.7906 47.25 43.7906 50.7094 52.3969 50.7094C53.1562 50.7094 53.6625 50.4562 53.9156 50.0344 54.2531 49.5281 54.1687 48.8531 53.8312 48.2625L51.3 43.875 54.2531 42.1875 56.7844 46.575C57.0375 46.9969 57.2063 47.3344 57.2906 47.7562L57.6281 47.925 57.375 48.0094C57.7125 49.275 57.5437 50.625 56.8688 51.7219Z" stroke="#404040" stroke-width="0.84375" fill="#FFFFFF" transform="matrix(1 0 0 1.18519 481 413)"/></g></g></g></g></svg>